<svg width="35" height="27" viewBox="0 0 35 27" fill="none" xmlns="http://www.w3.org/2000/svg">
<path d="M0 0.0769043V27H35V0.0769043H0ZM2.69231 2.76921H32.3077V24.3077H27.7227C27.6177 24.1233 27.6648 23.8715 27.5113 23.7181C27.0038 23.2092 26.281 22.9615 25.5769 22.9615C24.8729 22.9615 24.1513 23.2092 23.6412 23.7194C23.489 23.8715 23.5362 24.1233 23.4312 24.3077H11.5688C11.4638 24.1233 11.511 23.8715 11.3588 23.7181C10.8473 23.2092 10.1271 22.9615 9.42308 22.9615C8.71904 22.9615 7.9975 23.2092 7.48731 23.7194C7.33519 23.8715 7.38231 24.1233 7.27731 24.3077H2.69231V2.76921ZM12.1154 5.46152C9.15385 5.46152 6.73077 7.8846 6.73077 10.8461C6.73077 12.3444 7.37288 13.6959 8.37173 14.6746C7.45585 15.2933 6.70497 16.1264 6.18438 17.1015C5.66379 18.0765 5.38924 19.1639 5.38462 20.2692H8.07692C8.07692 19.1981 8.5024 18.1709 9.25976 17.4136C10.0171 16.6562 11.0443 16.2308 12.1154 16.2308C13.1865 16.2308 14.2137 16.6562 14.971 17.4136C15.7284 18.1709 16.1538 19.1981 16.1538 20.2692H18.8462C18.8415 19.1639 18.567 18.0765 18.0464 17.1015C17.5258 16.1264 16.7749 15.2933 15.859 14.6746C16.8579 13.6959 17.5 12.3458 17.5 10.8461C17.5 7.8846 15.0769 5.46152 12.1154 5.46152ZM12.1154 8.15383C13.619 8.15383 14.8077 9.34248 14.8077 10.8461C14.8077 12.3498 13.619 13.5384 12.1154 13.5384C10.6117 13.5384 9.42308 12.3498 9.42308 10.8461C9.42308 9.34248 10.6117 8.15383 12.1154 8.15383ZM21.5385 9.49998V12.1923H29.6154V9.49998H21.5385ZM21.5385 14.8846V17.5769H29.6154V14.8846H21.5385Z" fill="#FCC028"/>
</svg>
