<svg width="75" height="75" viewBox="0 0 75 75" fill="none" xmlns="http://www.w3.org/2000/svg">
<g clip-path="url(#clip0_15_40)">
<path d="M28.125 14.0625C28.125 17.7921 26.6434 21.369 24.0062 24.0062C21.369 26.6434 17.7921 28.125 14.0625 28.125C10.3329 28.125 6.75604 26.6434 4.11881 24.0062C1.48158 21.369 0 17.7921 0 14.0625C0 10.3329 1.48158 6.75604 4.11881 4.11881C6.75604 1.48158 10.3329 0 14.0625 0C17.7921 0 21.369 1.48158 24.0062 4.11881C26.6434 6.75604 28.125 10.3329 28.125 14.0625ZM4.6875 14.0625C4.6875 16.5489 5.67522 18.9335 7.43337 20.6916C9.19153 22.4498 11.5761 23.4375 14.0625 23.4375C16.5489 23.4375 18.9335 22.4498 20.6916 20.6916C22.4498 18.9335 23.4375 16.5489 23.4375 14.0625C23.4375 11.5761 22.4498 9.19153 20.6916 7.43337C18.9335 5.67522 16.5489 4.6875 14.0625 4.6875C11.5761 4.6875 9.19153 5.67522 7.43337 7.43337C5.67522 9.19153 4.6875 11.5761 4.6875 14.0625Z" fill="#FCC028"/>
<path d="M42.1875 28.125H44.5312C46.8051 28.1247 49.0016 28.9509 50.7116 30.4497C52.4217 31.9484 53.5287 34.0176 53.8266 36.2719L68.4047 29.7937C69.1183 29.4758 69.9 29.3412 70.6788 29.4023C71.4576 29.4633 72.2088 29.718 72.8641 30.1433C73.5194 30.5685 74.0581 31.1508 74.4311 31.8371C74.8041 32.5235 74.9997 33.2922 75 34.0734V69.0516C74.9993 69.8321 74.8037 70.6002 74.4309 71.286C74.0582 71.9718 73.52 72.5537 72.8654 72.9788C72.2107 73.4039 71.4602 73.6588 70.6821 73.7204C69.9039 73.7819 69.1227 73.6482 68.4094 73.3312L53.8266 66.8531C53.5287 69.1074 52.4217 71.1766 50.7116 72.6753C49.0016 74.1741 46.8051 75.0003 44.5312 75H9.375C6.8886 75 4.50403 74.0123 2.74587 72.2541C0.987721 70.496 0 68.1114 0 65.625V37.5C0 35.0136 0.987721 32.629 2.74587 30.8709C4.50403 29.1127 6.8886 28.125 9.375 28.125H42.1875ZM70.3125 69.0469V34.0781L53.9062 41.3672V61.7578L70.3125 69.0516V69.0469ZM4.6875 37.5V65.625C4.6875 66.8682 5.18136 68.0605 6.06044 68.9396C6.93951 69.8186 8.1318 70.3125 9.375 70.3125H44.5312C45.7745 70.3125 46.9667 69.8186 47.8458 68.9396C48.7249 68.0605 49.2188 66.8682 49.2188 65.625V37.5C49.2188 36.2568 48.7249 35.0645 47.8458 34.1854C46.9667 33.3064 45.7745 32.8125 44.5312 32.8125H9.375C8.1318 32.8125 6.93951 33.3064 6.06044 34.1854C5.18136 35.0645 4.6875 36.2568 4.6875 37.5Z" fill="#FCC028"/>
<path d="M42.1875 28.125C45.9171 28.125 49.494 26.6434 52.1312 24.0062C54.7684 21.369 56.25 17.7921 56.25 14.0625C56.25 10.3329 54.7684 6.75604 52.1312 4.11881C49.494 1.48158 45.9171 0 42.1875 0C38.4579 0 34.881 1.48158 32.2438 4.11881C29.6066 6.75604 28.125 10.3329 28.125 14.0625C28.125 17.7921 29.6066 21.369 32.2438 24.0062C34.881 26.6434 38.4579 28.125 42.1875 28.125ZM32.8125 14.0625C32.8125 11.5761 33.8002 9.19153 35.5584 7.43337C37.3165 5.67522 39.7011 4.6875 42.1875 4.6875C44.6739 4.6875 47.0585 5.67522 48.8166 7.43337C50.5748 9.19153 51.5625 11.5761 51.5625 14.0625C51.5625 16.5489 50.5748 18.9335 48.8166 20.6916C47.0585 22.4498 44.6739 23.4375 42.1875 23.4375C39.7011 23.4375 37.3165 22.4498 35.5584 20.6916C33.8002 18.9335 32.8125 16.5489 32.8125 14.0625Z" fill="#FCC028"/>
</g>
<defs>
<clipPath id="clip0_15_40">
<rect width="75" height="75" fill="white"/>
</clipPath>
</defs>
</svg>
