<svg width="49" height="53" viewBox="0 0 49 53" fill="none" xmlns="http://www.w3.org/2000/svg">
<path d="M43.2474 37.6816L34.9829 35.6198C34.9521 35.5733 34.9182 35.5285 34.8778 35.488L32.4161 33.0253V30.6679C32.6209 30.4596 32.8215 30.2434 33.0167 30.0181C35.3136 27.3655 36.6946 23.7919 36.9055 19.9556C36.914 19.8017 36.9218 19.6481 36.9295 19.4946C36.9551 18.987 36.9793 18.5076 37.0277 18.0239L37.8428 9.87278C38.0946 7.35325 37.2648 4.83169 35.5658 2.95427C33.8669 1.07673 31.4401 0 28.908 0H19.7726C17.2405 0 14.8138 1.07673 13.1147 2.95415C11.4156 4.83157 10.5858 7.35336 10.8377 9.87278L11.6522 18.0184C11.7007 18.5039 11.7252 18.9873 11.7511 19.4992C11.7588 19.6514 11.7665 19.8035 11.7748 19.9556C11.9857 23.7919 13.3667 27.3655 15.6636 30.0181C15.8587 30.2434 16.0594 30.4595 16.2643 30.6679V33.0253L13.8025 35.4879C13.763 35.5273 13.7298 35.5708 13.6996 35.616L5.43268 37.6817C1.92938 38.5575 0 40.7077 0 43.7362V49.6406C0 51.1042 1.1907 52.2949 2.65428 52.2949H46.0263C47.4899 52.2949 48.6806 51.1042 48.6806 49.6406V43.736C48.6806 40.7077 46.7512 38.5575 43.2474 37.6816ZM23.4367 46.8734H25.2439C25.3069 46.8734 25.3691 46.8703 25.4311 46.8661L26.0668 50.6007H22.6138L23.2494 46.8661C23.3114 46.8703 23.3737 46.8734 23.4367 46.8734ZM26.2039 44.2191C26.2039 44.7485 25.7732 45.1792 25.2439 45.1792H23.4367C22.9073 45.1792 22.4766 44.7485 22.4766 44.2191V42.8653L24.3403 41.6229L26.2039 42.8653V44.2191ZM17.9587 32.1204C19.875 33.4902 22.0669 34.2232 24.3403 34.2232C26.6137 34.2232 28.8056 33.4902 30.7218 32.1204V33.0253L24.3403 39.4069L17.9587 33.0253V32.1204ZM27.5257 41.7103C27.5248 41.7098 27.5239 41.7092 27.523 41.7085L25.6699 40.4731L31.5688 34.5742L33.2294 36.2353C32.6691 37.2463 31.3531 39.6146 29.4951 42.9557C29.4916 42.962 29.4843 42.9751 29.4635 42.9802C29.4395 42.9861 29.4224 42.9747 29.4167 42.9709L27.5257 41.7103ZM14.3709 4.09097C15.7493 2.56776 17.7183 1.69422 19.7726 1.69422H28.908C30.9624 1.69422 32.9312 2.56776 34.3097 4.09097C35.6882 5.61408 36.3614 7.66002 36.157 9.70404L35.6412 14.8621C34.4966 12.1344 33.2302 10.3873 33.1556 10.2855C32.8857 9.91717 32.372 9.82929 31.995 10.0868C29.7688 11.6066 19.8539 11.8001 16.2206 11.7466C15.9755 11.742 15.7406 11.8456 15.5771 12.0284C14.539 13.1871 13.7223 14.49 13.1164 15.6324L12.5237 9.70415C12.3191 7.66013 12.9925 5.61419 14.3709 4.09097ZM13.4667 19.8627C13.4584 19.7129 13.4509 19.5633 13.4433 19.4135C13.4381 19.3099 13.4327 19.2051 13.4271 19.1002C13.6097 18.582 14.6685 15.7259 16.5902 13.4452C18.9343 13.4658 28.5081 13.4504 32.1902 11.8888C32.9162 13.0341 34.4469 15.7151 35.2543 19.0807C35.2485 19.1908 35.2429 19.3005 35.2374 19.4091C35.2297 19.5601 35.2221 19.7112 35.2138 19.8627C34.8234 26.9653 30.0472 32.529 24.3403 32.529C18.6334 32.529 13.8571 26.9653 13.4667 19.8627ZM17.1117 34.5742L23.0107 40.4731L21.1572 41.7087C21.1565 41.7092 21.1557 41.7098 21.155 41.7102L19.2638 42.971C19.2583 42.9749 19.2411 42.9862 19.2171 42.9803C19.1963 42.9753 19.1889 42.9621 19.1856 42.9559C17.3276 39.6147 16.0116 37.2464 15.4513 36.2354L17.1117 34.5742ZM1.69422 49.6406V43.7362C1.69422 41.4976 3.09026 40.0136 5.84347 39.3253L14.0856 37.266C14.574 38.1479 15.5867 39.9702 17.7049 43.7793C17.941 44.2038 18.3469 44.5128 18.8184 44.6269C18.9535 44.6596 19.0909 44.6757 19.228 44.6757C19.5718 44.6757 19.9128 44.5745 20.2037 44.3806L20.7825 43.9947V44.219C20.7825 44.9941 21.1165 45.6924 21.6481 46.1782L20.8953 50.6007H9.82647V46.0263C9.82647 45.5585 9.44719 45.1792 8.97936 45.1792C8.51153 45.1792 8.13225 45.5585 8.13225 46.0263V50.6007H2.65428C2.12489 50.6007 1.69422 50.17 1.69422 49.6406ZM46.9863 49.6406C46.9863 50.17 46.5557 50.6007 46.0263 50.6007H40.5483V46.0263C40.5483 45.5585 40.169 45.1792 39.7012 45.1792C39.2334 45.1792 38.8541 45.5585 38.8541 46.0263V50.6007H27.7853L27.0325 46.1783C27.564 45.6926 27.898 44.9942 27.898 44.2191V43.9948L28.4769 44.3807C28.7677 44.5747 29.1087 44.6758 29.4525 44.6758C29.5896 44.6758 29.7272 44.6596 29.8622 44.627C30.3336 44.5128 30.7396 44.2039 30.9756 43.7793C33.0916 39.9742 34.1044 38.1518 34.5934 37.2688L42.8369 39.3253C45.5903 40.0136 46.9863 41.4976 46.9863 43.736V49.6406Z" fill="#FCC028"/>
</svg>
