<svg width="80" height="80" viewBox="0 0 80 80" fill="none" xmlns="http://www.w3.org/2000/svg">
<g clip-path="url(#clip0_14_18)">
<path d="M17.5 55C16.837 55 16.2011 55.2634 15.7322 55.7322C15.2634 56.2011 15 56.837 15 57.5V62.5C15 63.163 15.2634 63.7989 15.7322 64.2678C16.2011 64.7366 16.837 65 17.5 65H62.5C63.163 65 63.7989 64.7366 64.2678 64.2678C64.7366 63.7989 65 63.163 65 62.5V57.5C65 56.837 64.7366 56.2011 64.2678 55.7322C63.7989 55.2634 63.163 55 62.5 55H17.5Z" fill="#FCC028"/>
<path d="M11.875 5.00009C10.3215 4.99417 8.78196 5.2943 7.34442 5.88335C5.90687 6.4724 4.59942 7.33883 3.49672 8.43317C2.39402 9.52751 1.51767 10.8283 0.917703 12.2614C0.317734 13.6944 0.00589826 15.2315 0 16.7851L0 63.2151C0.00589826 64.7686 0.317734 66.3058 0.917703 67.7388C1.51767 69.1719 2.39402 70.4727 3.49672 71.567C4.59942 72.6614 5.90687 73.5278 7.34442 74.1168C8.78196 74.7059 10.3215 75.006 11.875 75.0001H68.125C69.6785 75.006 71.218 74.7059 72.6556 74.1168C74.0931 73.5278 75.4006 72.6614 76.5033 71.567C77.606 70.4727 78.4823 69.1719 79.0823 67.7388C79.6823 66.3058 79.9941 64.7686 80 63.2151V16.7851C79.9941 15.2315 79.6823 13.6944 79.0823 12.2614C78.4823 10.8283 77.606 9.52751 76.5033 8.43317C75.4006 7.33883 74.0931 6.4724 72.6556 5.88335C71.218 5.2943 69.6785 4.99417 68.125 5.00009H11.875ZM5 16.7851C5 13.0601 8.055 10.0001 11.875 10.0001H68.125C71.945 10.0001 75 13.0601 75 16.7851V20.0001H5V16.7851ZM5 25.0001H75V63.2151C75 66.9401 71.945 70.0001 68.125 70.0001H11.875C10.9781 70.006 10.0887 69.8352 9.25782 69.4974C8.4269 69.1597 7.67064 68.6615 7.03224 68.0315C6.39383 67.4014 5.88578 66.6518 5.53708 65.8254C5.18839 64.999 5.00589 64.112 5 63.2151V25.0001Z" fill="#FCC028"/>
</g>
<defs>
<clipPath id="clip0_14_18">
<rect width="80" height="80" fill="white"/>
</clipPath>
</defs>
</svg>
