<svg width="31" height="28" viewBox="0 0 31 28" fill="none" xmlns="http://www.w3.org/2000/svg">
<path d="M30.5 10.5469V24.0769C30.5 25.7269 29.15 27.0769 27.5 27.0769H3.5C1.85 27.0769 0.5 25.7269 0.5 24.0769V6.0769C0.5 4.4269 1.85 3.0769 3.5 3.0769H18.65C18.56 3.5569 18.5 4.0669 18.5 4.5769C18.5 6.7969 19.475 8.7619 21.005 10.1419L15.5 13.5769L3.5 6.0769V9.0769L15.5 16.5769L23.45 11.5969C24.26 11.8969 25.1 12.0769 26 12.0769C27.695 12.0769 29.24 11.4919 30.5 10.5469ZM21.5 4.5769C21.5 7.0669 23.51 9.0769 26 9.0769C28.49 9.0769 30.5 7.0669 30.5 4.5769C30.5 2.0869 28.49 0.0769043 26 0.0769043C23.51 0.0769043 21.5 2.0869 21.5 4.5769Z" fill="#FCC028"/>
</svg>
