<svg width="79" height="80" viewBox="0 0 79 80" fill="none" xmlns="http://www.w3.org/2000/svg">
<path d="M54.5503 5C55.8582 5 57.1125 5.52678 58.0373 6.46447C58.9621 7.40215 59.4817 8.67392 59.4817 10V70C59.4817 71.3261 58.9621 72.5979 58.0373 73.5355C57.1125 74.4732 55.8582 75 54.5503 75H24.962C23.6541 75 22.3998 74.4732 21.475 73.5355C20.5502 72.5979 20.0307 71.3261 20.0307 70V10C20.0307 8.67392 20.5502 7.40215 21.475 6.46447C22.3998 5.52678 23.6541 5 24.962 5H54.5503ZM24.962 0C22.3463 0 19.8376 1.05357 17.988 2.92893C16.1384 4.8043 15.0993 7.34784 15.0993 10V70C15.0993 72.6522 16.1384 75.1957 17.988 77.0711C19.8376 78.9464 22.3463 80 24.962 80H54.5503C57.1661 80 59.6747 78.9464 61.5243 77.0711C63.3739 75.1957 64.4131 72.6522 64.4131 70V10C64.4131 7.34784 63.3739 4.8043 61.5243 2.92893C59.6747 1.05357 57.1661 0 54.5503 0L24.962 0Z" fill="#FCC028"/>
<path d="M39.7562 70C41.064 70 42.3184 69.4732 43.2432 68.5355C44.168 67.5979 44.6875 66.3261 44.6875 65C44.6875 63.6739 44.168 62.4021 43.2432 61.4645C42.3184 60.5268 41.064 60 39.7562 60C38.4483 60 37.194 60.5268 36.2692 61.4645C35.3443 62.4021 34.8248 63.6739 34.8248 65C34.8248 66.3261 35.3443 67.5979 36.2692 68.5355C37.194 69.4732 38.4483 70 39.7562 70Z" fill="#FCC028"/>
</svg>
