<svg width="82" height="80" viewBox="0 0 82 80" fill="none" xmlns="http://www.w3.org/2000/svg">
<g clip-path="url(#clip0_14_24)">
<path d="M15.621 6.75C16.0972 6.20117 16.6884 5.76055 17.3539 5.45846C18.0194 5.15636 18.7435 4.99995 19.4761 5H62.7961C63.5288 4.99995 64.2528 5.15636 64.9183 5.45846C65.5838 5.76055 66.175 6.20117 66.6513 6.75L79.8857 21.97C81.0673 23.3292 81.7168 25.0601 81.7169 26.85V28.125C81.7172 30.5999 80.933 33.013 79.4739 35.0271C78.0148 37.0412 75.9537 38.5556 73.5788 39.3587C71.2038 40.1618 68.6337 40.2134 66.2275 39.5063C63.8214 38.7993 61.6995 37.3689 60.1584 35.415C59.0329 36.8438 57.5908 37.9999 55.9422 38.7946C54.2936 39.5893 52.4824 40.0016 50.6472 40C48.812 40.002 47.0007 39.5899 45.352 38.7951C43.7034 38.0004 42.2613 36.8441 41.1361 35.415C40.011 36.8441 38.5688 38.0004 36.9202 38.7951C35.2716 39.5899 33.4602 40.002 31.625 40C29.7898 40.002 27.9784 39.5899 26.3298 38.7951C24.6812 38.0004 23.239 36.8441 22.1139 35.415C20.5728 37.3689 18.4509 38.7993 16.0447 39.5063C13.6386 40.2134 11.0684 40.1618 8.69345 39.3587C6.3185 38.5556 4.25745 37.0412 2.79837 35.0271C1.33929 33.013 0.555082 30.5999 0.555359 28.125V26.85C0.555423 25.0601 1.20494 23.3292 2.38657 21.97L15.626 6.745L15.621 6.75ZM24.6502 28.125C24.6502 29.9484 25.385 31.697 26.6931 32.9864C28.0011 34.2757 29.7752 35 31.625 35C33.4748 35 35.2489 34.2757 36.5569 32.9864C37.865 31.697 38.5998 29.9484 38.5998 28.125C38.5998 27.462 38.867 26.8261 39.3427 26.3572C39.8183 25.8884 40.4635 25.625 41.1361 25.625C41.8088 25.625 42.4539 25.8884 42.9296 26.3572C43.4052 26.8261 43.6724 27.462 43.6724 28.125C43.6724 29.9484 44.4073 31.697 45.7153 32.9864C47.0233 34.2757 48.7974 35 50.6472 35C52.4971 35 54.2711 34.2757 55.5792 32.9864C56.8872 31.697 57.6221 29.9484 57.6221 28.125C57.6221 27.462 57.8893 26.8261 58.3649 26.3572C58.8406 25.8884 59.4857 25.625 60.1584 25.625C60.831 25.625 61.4761 25.8884 61.9518 26.3572C62.4274 26.8261 62.6946 27.462 62.6946 28.125C62.6946 29.9484 63.4295 31.697 64.7375 32.9864C66.0456 34.2757 67.8196 35 69.6695 35C71.5193 35 73.2934 34.2757 74.6014 32.9864C75.9094 31.697 76.6443 29.9484 76.6443 28.125V26.85C76.6443 26.2541 76.4285 25.6779 76.0356 25.225L62.7961 10H19.4761L6.23667 25.225C5.84378 25.6779 5.62791 26.2541 5.62795 26.85V28.125C5.62795 29.9484 6.3628 31.697 7.67083 32.9864C8.97886 34.2757 10.7529 35 12.6028 35C14.4526 35 16.2267 34.2757 17.5347 32.9864C18.8427 31.697 19.5776 29.9484 19.5776 28.125C19.5776 27.462 19.8448 26.8261 20.3205 26.3572C20.7961 25.8884 21.4412 25.625 22.1139 25.625C22.7866 25.625 23.4317 25.8884 23.9073 26.3572C24.383 26.8261 24.6502 27.462 24.6502 28.125ZM8.16425 42.5C8.83692 42.5 9.48204 42.7634 9.95768 43.2322C10.4333 43.7011 10.7005 44.337 10.7005 45V75H15.7731V50C15.7731 48.6739 16.3076 47.4021 17.2589 46.4645C18.2102 45.5268 19.5004 45 20.8457 45H36.0635C37.4089 45 38.6991 45.5268 39.6504 46.4645C40.6017 47.4021 41.1361 48.6739 41.1361 50V75H71.5717V45C71.5717 44.337 71.8389 43.7011 72.3146 43.2322C72.7902 42.7634 73.4353 42.5 74.108 42.5C74.7807 42.5 75.4258 42.7634 75.9014 43.2322C76.3771 43.7011 76.6443 44.337 76.6443 45V75H79.1806C79.8532 75 80.4984 75.2634 80.974 75.7322C81.4497 76.2011 81.7169 76.837 81.7169 77.5C81.7169 78.163 81.4497 78.7989 80.974 79.2678C80.4984 79.7366 79.8532 80 79.1806 80H3.09166C2.41899 80 1.77387 79.7366 1.29822 79.2678C0.822575 78.7989 0.555359 78.163 0.555359 77.5C0.555359 76.837 0.822575 76.2011 1.29822 75.7322C1.77387 75.2634 2.41899 75 3.09166 75H5.62795V45C5.62795 44.337 5.89517 43.7011 6.37082 43.2322C6.84647 42.7634 7.49158 42.5 8.16425 42.5ZM20.8457 75H36.0635V50H20.8457V75ZM46.2087 50C46.2087 48.6739 46.7431 47.4021 47.6944 46.4645C48.6457 45.5268 49.936 45 51.2813 45H61.4265C62.7718 45 64.0621 45.5268 65.0134 46.4645C65.9647 47.4021 66.4991 48.6739 66.4991 50V65C66.4991 66.3261 65.9647 67.5979 65.0134 68.5355C64.0621 69.4732 62.7718 70 61.4265 70H51.2813C49.936 70 48.6457 69.4732 47.6944 68.5355C46.7431 67.5979 46.2087 66.3261 46.2087 65V50ZM61.4265 50H51.2813V65H61.4265V50Z" fill="#FCC028"/>
</g>
<defs>
<clipPath id="clip0_14_24">
<rect width="81.1615" height="80" fill="white" transform="translate(0.555359)"/>
</clipPath>
</defs>
</svg>
